<?xml version="1.0" encoding="UTF-8"?>
<svg width="536px" height="500px" viewBox="0 0 536 500" version="1.1" xmlns="http://www.w3.org/2000/svg" xmlns:xlink="http://www.w3.org/1999/xlink">
    <!-- Generator: Sketch 45.1 (43504) - http://www.bohemiancoding.com/sketch -->
    <title>icon</title>
    <desc>Created with Sketch.</desc>
    <defs></defs>
    <g id="Page-1" stroke="none" stroke-width="1" fill="none" fill-rule="evenodd">
        <g id="Group" transform="translate(3.000000, 3.000000)" stroke-width="5" stroke="#000000">
            <polygon id="Polygon" fill="#98C1D9" transform="translate(265.500000, 132.500000) rotate(90.000000) translate(-265.500000, -132.500000) " points="265.5 0 380.248366 66.25 380.248366 198.75 265.5 265 150.751634 198.75 150.751634 66.25"></polygon>
            <polygon id="Polygon" fill="#778DA9" transform="translate(330.500000, 245.500000) rotate(90.000000) translate(-330.500000, -245.500000) " points="330.5 113 445.248366 179.25 445.248366 311.75 330.5 378 215.751634 311.75 215.751634 179.25"></polygon>
            <polygon id="Polygon" fill="#3C4F76" transform="translate(397.500000, 361.500000) rotate(90.000000) translate(-397.500000, -361.500000) " points="397.5 229 512.248366 295.25 512.248366 427.75 397.5 494 282.751634 427.75 282.751634 295.25"></polygon>
            <polygon id="Polygon" fill="#383F51" transform="translate(132.500000, 361.500000) rotate(90.000000) translate(-132.500000, -361.500000) " points="132.5 229 247.248366 295.25 247.248366 427.75 132.5 494 17.751634 427.75 17.751634 295.25"></polygon>
        </g>
    </g>
</svg>